<svg width="40" height="40" viewBox="0 0 40 40" fill="none" xmlns="http://www.w3.org/2000/svg">
<circle cx="20" cy="20" r="20" fill="#F7F7F7"/>
<rect width="20" height="20" transform="translate(10 10)" fill="#F7F7F7"/>
<path d="M17.9891 19.9974L23.0626 24.4453C23.2351 24.5965 23.3233 24.7865 23.3273 25.0154C23.3313 25.2443 23.2431 25.4378 23.0626 25.596C22.8822 25.7542 22.6634 25.8334 22.4063 25.8334C22.1492 25.8334 21.9304 25.7542 21.75 25.596L16.1519 20.6883C16.0353 20.5861 15.9531 20.4783 15.9052 20.3649C15.8573 20.2515 15.8333 20.129 15.8333 19.9974C15.8333 19.8658 15.8573 19.7433 15.9052 19.63C15.9531 19.5166 16.0353 19.4088 16.1519 19.3066L21.75 14.3989C21.9225 14.2476 22.1392 14.1703 22.4003 14.1668C22.6614 14.1633 22.8822 14.2406 23.0626 14.3989C23.2431 14.557 23.3333 14.7488 23.3333 14.9742C23.3333 15.1996 23.2431 15.3914 23.0626 15.5496L17.9891 19.9974Z" fill="black"/>
</svg>
