<svg width="44" height="45" viewBox="0 0 44 45" fill="none" xmlns="http://www.w3.org/2000/svg">
<circle cx="22" cy="22.5" r="22" fill="white"/>
<path d="M15 29.5C14.7167 29.5 14.4792 29.4042 14.2875 29.2125C14.0958 29.0208 14 28.7833 14 28.5C14 28.2167 14.0958 27.9792 14.2875 27.7875C14.4792 27.5958 14.7167 27.5 15 27.5H16V20.5C16 19.1167 16.4167 17.8875 17.25 16.8125C18.0833 15.7375 19.1667 15.0333 20.5 14.7V14C20.5 13.5833 20.6458 13.2292 20.9375 12.9375C21.2292 12.6458 21.5833 12.5 22 12.5C22.4167 12.5 22.7708 12.6458 23.0625 12.9375C23.3542 13.2292 23.5 13.5833 23.5 14V14.7C24.8333 15.0333 25.9167 15.7375 26.75 16.8125C27.5833 17.8875 28 19.1167 28 20.5V27.5H29C29.2833 27.5 29.5208 27.5958 29.7125 27.7875C29.9042 27.9792 30 28.2167 30 28.5C30 28.7833 29.9042 29.0208 29.7125 29.2125C29.5208 29.4042 29.2833 29.5 29 29.5H15ZM22 32.5C21.45 32.5 20.9792 32.3042 20.5875 31.9125C20.1958 31.5208 20 31.05 20 30.5H24C24 31.05 23.8042 31.5208 23.4125 31.9125C23.0208 32.3042 22.55 32.5 22 32.5ZM18 27.5H26V20.5C26 19.4 25.6083 18.4583 24.825 17.675C24.0417 16.8917 23.1 16.5 22 16.5C20.9 16.5 19.9583 16.8917 19.175 17.675C18.3917 18.4583 18 19.4 18 20.5V27.5Z" fill="black"/>
<circle cx="26.5" cy="18" r="2.5" fill="#E2699B"/>
</svg>
