<svg width="24" height="24" viewBox="0 0 24 24" fill="none" xmlns="http://www.w3.org/2000/svg">
<path d="M12.9875 17V17.0125H13H20C20.2802 17.0125 20.5145 17.1071 20.7037 17.2963C20.8929 17.4855 20.9875 17.7198 20.9875 18C20.9875 18.2802 20.8929 18.5145 20.7037 18.7037C20.5145 18.8929 20.2802 18.9875 20 18.9875H13H12.9875V19V20C12.9875 20.2802 12.8929 20.5145 12.7037 20.7037C12.5145 20.8929 12.2802 20.9875 12 20.9875C11.7198 20.9875 11.4855 20.8929 11.2963 20.7037C11.1071 20.5145 11.0125 20.2802 11.0125 20V16C11.0125 15.7198 11.1071 15.4855 11.2963 15.2963C11.4855 15.1071 11.7198 15.0125 12 15.0125C12.2802 15.0125 12.5145 15.1071 12.7037 15.2963C12.8929 15.4855 12.9875 15.7198 12.9875 16V17ZM7.0125 13V12.9875H7H4C3.71981 12.9875 3.48555 12.8929 3.29634 12.7037C3.10713 12.5145 3.0125 12.2802 3.0125 12C3.0125 11.7198 3.10713 11.4855 3.29634 11.2963C3.48555 11.1071 3.71981 11.0125 4 11.0125H7H7.0125V11V10C7.0125 9.71981 7.10713 9.48555 7.29634 9.29634C7.48555 9.10713 7.71981 9.0125 8 9.0125C8.28019 9.0125 8.51445 9.10713 8.70366 9.29634C8.89287 9.48555 8.9875 9.71981 8.9875 10V14C8.9875 14.2802 8.89287 14.5145 8.70366 14.7037C8.51445 14.8929 8.28019 14.9875 8 14.9875C7.71981 14.9875 7.48555 14.8929 7.29634 14.7037C7.10713 14.5145 7.0125 14.2802 7.0125 14V13ZM16.9875 5V5.0125H17H20C20.2802 5.0125 20.5145 5.10713 20.7037 5.29634C20.8929 5.48555 20.9875 5.71981 20.9875 6C20.9875 6.28019 20.8929 6.51445 20.7037 6.70366C20.5145 6.89287 20.2802 6.9875 20 6.9875H17H16.9875V7V8C16.9875 8.28019 16.8929 8.51445 16.7037 8.70366C16.5145 8.89287 16.2802 8.9875 16 8.9875C15.7198 8.9875 15.4855 8.89287 15.2963 8.70366C15.1071 8.51445 15.0125 8.28019 15.0125 8V4C15.0125 3.71981 15.1071 3.48555 15.2963 3.29634C15.4855 3.10713 15.7198 3.0125 16 3.0125C16.2802 3.0125 16.5145 3.10713 16.7037 3.29634C16.8929 3.48555 16.9875 3.71981 16.9875 4V5ZM4 18.9875C3.71981 18.9875 3.48555 18.8929 3.29634 18.7037C3.10713 18.5145 3.0125 18.2802 3.0125 18C3.0125 17.7198 3.10713 17.4855 3.29634 17.2963C3.48555 17.1071 3.71981 17.0125 4 17.0125H8C8.28019 17.0125 8.51445 17.1071 8.70366 17.2963C8.89287 17.4855 8.9875 17.7198 8.9875 18C8.9875 18.2802 8.89287 18.5145 8.70366 18.7037C8.51445 18.8929 8.28019 18.9875 8 18.9875H4ZM12 12.9875C11.7198 12.9875 11.4855 12.8929 11.2963 12.7037C11.1071 12.5145 11.0125 12.2802 11.0125 12C11.0125 11.7198 11.1071 11.4855 11.2963 11.2963C11.4855 11.1071 11.7198 11.0125 12 11.0125H20C20.2802 11.0125 20.5145 11.1071 20.7037 11.2963C20.8929 11.4855 20.9875 11.7198 20.9875 12C20.9875 12.2802 20.8929 12.5145 20.7037 12.7037C20.5145 12.8929 20.2802 12.9875 20 12.9875H12ZM4 6.9875C3.71981 6.9875 3.48555 6.89287 3.29634 6.70366C3.10713 6.51445 3.0125 6.28019 3.0125 6C3.0125 5.71981 3.10713 5.48555 3.29634 5.29634C3.48555 5.10713 3.71981 5.0125 4 5.0125H12C12.2802 5.0125 12.5145 5.10713 12.7037 5.29634C12.8929 5.48555 12.9875 5.71981 12.9875 6C12.9875 6.28019 12.8929 6.51445 12.7037 6.70366C12.5145 6.89287 12.2802 6.9875 12 6.9875H4Z" fill="black" stroke="black" stroke-width="0.025"/>
</svg>
