<svg width="40" height="40" viewBox="0 0 40 40" fill="none" xmlns="http://www.w3.org/2000/svg">
<circle cx="20" cy="20" r="20" fill="white"/>
<path d="M20 27.5L18.7917 26.4166C17.3889 25.1528 16.2292 24.0625 15.3125 23.1458C14.3958 22.2291 13.6667 21.4062 13.125 20.6771C12.5833 19.9479 12.2049 19.2778 11.9896 18.6666C11.7743 18.0555 11.6667 17.4305 11.6667 16.7916C11.6667 15.4861 12.1042 14.3958 12.9792 13.5208C13.8542 12.6458 14.9444 12.2083 16.25 12.2083C16.9722 12.2083 17.6597 12.3611 18.3125 12.6666C18.9653 12.9722 19.5278 13.4028 20 13.9583C20.4722 13.4028 21.0347 12.9722 21.6875 12.6666C22.3403 12.3611 23.0278 12.2083 23.75 12.2083C25.0555 12.2083 26.1458 12.6458 27.0208 13.5208C27.8958 14.3958 28.3333 15.4861 28.3333 16.7916C28.3333 17.4305 28.2257 18.0555 28.0104 18.6666C27.7951 19.2778 27.4167 19.9479 26.875 20.6771C26.3333 21.4062 25.6042 22.2291 24.6875 23.1458C23.7708 24.0625 22.6111 25.1528 21.2083 26.4166L20 27.5Z" fill="black"/>
</svg>
