<svg width="54" height="54" viewBox="0 0 54 54" fill="none" xmlns="http://www.w3.org/2000/svg">
<g filter="url(#filter0_d_4_157)">
<circle cx="27" cy="23" r="12" fill="white"/>
</g>
<path d="M30.3964 25.1631C29.6714 25.8881 28.7506 26.754 27.6324 27.7615C27.6323 27.7616 27.6321 27.7617 27.632 27.7619L27 28.3285L26.368 27.7619C26.3679 27.7617 26.3677 27.7616 26.3676 27.7615C25.2494 26.754 24.3286 25.8881 23.6035 25.1631C22.8808 24.4404 22.3154 23.8009 21.9014 23.2435C21.4869 22.6856 21.2136 22.1941 21.0633 21.7672C20.9096 21.3309 20.8333 20.887 20.8333 20.4333C20.8333 19.5134 21.1362 18.7709 21.7369 18.1702C22.3375 17.5696 23.08 17.2667 24 17.2667C24.5047 17.2667 24.9823 17.3729 25.438 17.5862C25.8945 17.7999 26.2871 18.1 26.619 18.4905L27 18.9387L27.381 18.4905C27.7129 18.1 28.1054 17.7999 28.562 17.5862C29.0177 17.3729 29.4953 17.2667 30 17.2667C30.9199 17.2667 31.6625 17.5696 32.2631 18.1702C32.8638 18.7709 33.1667 19.5134 33.1667 20.4333C33.1667 20.887 33.0904 21.3309 32.9367 21.7672C32.7864 22.1941 32.5131 22.6856 32.0986 23.2435C31.6845 23.8009 31.1191 24.4404 30.3964 25.1631ZM26.6664 27.5724L27 27.8713L27.3336 27.5724C28.4039 26.6136 29.2885 25.788 29.9854 25.0966C30.6822 24.4055 31.2418 23.7955 31.6588 23.2686C32.0751 22.7424 32.3848 22.249 32.5651 21.7918C32.7416 21.3442 32.8333 20.8905 32.8333 20.4333C32.8333 19.643 32.5646 18.9575 32.0202 18.4131C31.4759 17.8688 30.7903 17.6 30 17.6C29.3774 17.6 28.7984 17.7774 28.2738 18.1248C27.8551 18.4022 27.5291 18.7497 27.3093 19.1667H26.6907C26.4709 18.7497 26.1448 18.4022 25.7261 18.1248C25.2016 17.7774 24.6226 17.6 24 17.6C23.2096 17.6 22.5241 17.8688 21.9798 18.4131L22.3333 18.7667L21.9798 18.4131C21.4354 18.9575 21.1667 19.643 21.1667 20.4333C21.1667 20.8905 21.2584 21.3442 21.4349 21.7918C21.6152 22.249 21.9249 22.7424 22.3412 23.2686C22.7582 23.7955 23.3178 24.4055 24.0145 25.0966C24.7115 25.788 25.5961 26.6136 26.6664 27.5724Z" fill="black" stroke="#030401"/>
<defs>
<filter id="filter0_d_4_157" x="0" y="0" width="54" height="54" filterUnits="userSpaceOnUse" color-interpolation-filters="sRGB">
<feFlood flood-opacity="0" result="BackgroundImageFix"/>
<feColorMatrix in="SourceAlpha" type="matrix" values="0 0 0 0 0 0 0 0 0 0 0 0 0 0 0 0 0 0 127 0" result="hardAlpha"/>
<feOffset dy="4"/>
<feGaussianBlur stdDeviation="7.5"/>
<feComposite in2="hardAlpha" operator="out"/>
<feColorMatrix type="matrix" values="0 0 0 0 0 0 0 0 0 0 0 0 0 0 0 0 0 0 0.05 0"/>
<feBlend mode="normal" in2="BackgroundImageFix" result="effect1_dropShadow_4_157"/>
<feBlend mode="normal" in="SourceGraphic" in2="effect1_dropShadow_4_157" result="shape"/>
</filter>
</defs>
</svg>
