<svg width="14" height="14" viewBox="0 0 14 14" fill="none" xmlns="http://www.w3.org/2000/svg">
<path d="M4.24903 3.06981L4.24903 3.06981C5.02788 2.32439 5.93666 1.95835 7.00001 1.95835C8.06336 1.95835 8.97214 2.32439 9.751 3.06981L10.0967 2.70859L9.751 3.06981C10.5113 3.79752 10.903 4.75078 10.903 5.97804C10.903 6.76047 10.5887 7.66968 9.88711 8.71747C9.24076 9.6827 8.28301 10.7376 7.00001 11.8816C5.71702 10.7376 4.75927 9.6827 4.11292 8.71747C3.41129 7.66968 3.09698 6.76047 3.09698 5.97804C3.09698 4.75078 3.48868 3.79752 4.24903 3.06981ZM7.00101 7.42147C7.42496 7.42147 7.80029 7.26464 8.09956 6.96441C8.39844 6.66457 8.55449 6.2894 8.55449 5.866C8.55449 5.44204 8.39767 5.06671 8.09744 4.76744C7.7976 4.46856 7.42242 4.31251 6.99902 4.31251C6.57506 4.31251 6.19974 4.46934 5.90047 4.76957C5.60159 5.06941 5.44554 5.44458 5.44554 5.86798C5.44554 6.29194 5.60236 6.66727 5.90259 6.96654C6.20243 7.26542 6.57761 7.42147 7.00101 7.42147Z" fill="#E2699B" stroke="#E2699B"/>
</svg>
