<svg width="39" height="38" viewBox="0 0 39 38" fill="none" xmlns="http://www.w3.org/2000/svg">
<rect x="0.925537" width="37.9255" height="37.9255" rx="18.9628" fill="#E2699B"/>
<path d="M11.4276 28.1294V11.6294C11.4276 11.1253 11.6071 10.6937 11.9661 10.3346C12.3252 9.97561 12.7567 9.7961 13.2609 9.7961H27.9276C28.4317 9.7961 28.8633 9.97561 29.2224 10.3346C29.5814 10.6937 29.7609 11.1253 29.7609 11.6294V22.6294C29.7609 23.1336 29.5814 23.5652 29.2224 23.9242C28.8633 24.2832 28.4317 24.4628 27.9276 24.4628H15.0942L11.4276 28.1294ZM15.0942 20.7961H22.4276V18.9628H15.0942V20.7961ZM15.0942 18.0461H26.0942V16.2128H15.0942V18.0461ZM15.0942 15.2961H26.0942V13.4628H15.0942V15.2961Z" fill="white"/>
</svg>
