<svg width="38" height="38" viewBox="0 0 38 38" fill="none" xmlns="http://www.w3.org/2000/svg">
<rect width="37.9255" height="37.9255" rx="18.9628" fill="#E2699B"/>
<path d="M26.1206 18.6877C26.0677 16.9296 25.4275 15.4368 24.2 14.2093C22.9725 12.9818 21.4797 12.3416 19.7216 12.2887V10.9137C20.791 10.9373 21.7923 11.1564 22.7254 11.5713C23.6585 11.9861 24.4735 12.542 25.1704 13.2389C25.8673 13.9358 26.4232 14.7508 26.8381 15.6839C27.2529 16.617 27.4721 17.6183 27.4956 18.6877H26.1206ZM22.454 18.6877C22.4011 17.9532 22.1161 17.326 21.599 16.8059C21.0819 16.2859 20.4561 16.0024 19.7216 15.9554V14.5804C20.8368 14.6274 21.787 15.0449 22.572 15.8329C23.3571 16.6209 23.776 17.5725 23.8289 18.6877H22.454ZM26.489 26.7544C24.7615 26.7544 23.026 26.3528 21.2825 25.5495C19.5391 24.7463 17.9358 23.6131 16.4727 22.1499C15.0155 20.6868 13.8852 19.085 13.0819 17.3445C12.2787 15.604 11.877 13.87 11.877 12.1424C11.877 11.8674 11.9687 11.6368 12.152 11.4505C12.3354 11.2643 12.5645 11.1711 12.8395 11.1711H15.8293C16.0608 11.1711 16.265 11.2466 16.4418 11.3977C16.6187 11.5487 16.7312 11.7352 16.7794 11.9574L17.3047 14.6544C17.3412 14.9048 17.3335 15.1198 17.2818 15.2996C17.2301 15.4794 17.1373 15.6304 17.0033 15.7527L14.8861 17.8134C15.227 18.4374 15.6163 19.0277 16.054 19.5842C16.4918 20.1406 16.9657 20.6721 17.4757 21.1787C17.9787 21.6816 18.5135 22.1488 19.0799 22.5801C19.6464 23.0114 20.2581 23.4127 20.915 23.7841L22.9722 21.7093C23.1156 21.56 23.2892 21.4554 23.4931 21.3955C23.697 21.3356 23.9089 21.3209 24.1286 21.3514L26.6741 21.8697C26.9056 21.9308 27.0945 22.0489 27.2409 22.224C27.3872 22.3991 27.4603 22.5977 27.4603 22.8199V25.7919C27.4603 26.0669 27.3672 26.2961 27.1809 26.4794C26.9946 26.6627 26.764 26.7544 26.489 26.7544Z" fill="white"/>
</svg>
